<svg width="80" height="67" viewBox="0 0 80 67" fill="none" xmlns="http://www.w3.org/2000/svg">
<path d="M28.5 36C29.8807 36 31 34.8807 31 33.5C31 32.1193 29.8807 31 28.5 31C27.1193 31 26 32.1193 26 33.5C26 34.8807 27.1193 36 28.5 36Z" stroke="#6A7C70" stroke-width="3" stroke-miterlimit="10" stroke-linecap="round" stroke-linejoin="round"/>
<path d="M51.5 53C52.8807 53 54 51.8807 54 50.5C54 49.1193 52.8807 48 51.5 48C50.1193 48 49 49.1193 49 50.5C49 51.8807 50.1193 53 51.5 53Z" stroke="#6A7C70" stroke-width="3" stroke-miterlimit="10" stroke-linecap="round" stroke-linejoin="round"/>
<path d="M37.7877 28.6662L36.9978 27.3338C36.5618 26.5977 35.5957 26.3462 34.8398 26.7708L34.4243 27.0046C32.8444 27.8923 30.8696 26.7823 30.8696 25.0062V24.5385C30.8696 23.6885 30.1626 23 29.2897 23H27.7099C26.837 23 26.1301 23.6885 26.1301 24.5385V25.0062C26.1301 26.7823 24.1552 27.8931 22.5754 27.0046L22.1599 26.7708C21.4039 26.3462 20.4379 26.5977 20.0018 27.3338L19.2119 28.6662C18.7759 29.4023 19.0342 30.3431 19.7901 30.7677L20.2056 31.0015C21.7855 31.89 21.7855 34.11 20.2056 34.9985L19.7901 35.2323C19.0342 35.6569 18.7759 36.5977 19.2119 37.3338L20.0018 38.6662C20.4379 39.4023 21.4039 39.6538 22.1599 39.2292L22.5754 38.9954C24.1552 38.1069 26.1301 39.2177 26.1301 40.9938V41.4615C26.1301 42.3115 26.837 43 27.7099 43H29.2897C30.1626 43 30.8696 42.3115 30.8696 41.4615V40.9938C30.8696 39.2177 32.8444 38.1069 34.4243 38.9954L34.8398 39.2292C35.5957 39.6538 36.5618 39.4023 36.9978 38.6662L37.7877 37.3338C38.2238 36.5977 37.9655 35.6569 37.2095 35.2323L36.794 34.9985C35.2142 34.11 35.2142 31.89 36.794 31.0015L37.2095 30.7677C37.9655 30.3431 38.2246 29.4023 37.7877 28.6662Z" stroke="#6A7C70" stroke-width="3" stroke-miterlimit="10" stroke-linecap="round" stroke-linejoin="round"/>
<path d="M60.7877 46.6662L59.9978 45.3338C59.5618 44.5977 58.5957 44.3462 57.8398 44.7708L57.4243 45.0046C55.8444 45.8923 53.8696 44.7823 53.8696 43.0062V42.5385C53.8696 41.6885 53.1626 41 52.2897 41H50.7099C49.837 41 49.1301 41.6885 49.1301 42.5385V43.0062C49.1301 44.7823 47.1552 45.8931 45.5754 45.0046L45.1599 44.7708C44.4039 44.3462 43.4379 44.5977 43.0018 45.3338L42.2119 46.6662C41.7759 47.4023 42.0342 48.3431 42.7901 48.7677L43.2056 49.0015C44.7855 49.89 44.7855 52.11 43.2056 52.9985L42.7901 53.2323C42.0342 53.6569 41.7759 54.5977 42.2119 55.3338L43.0018 56.6662C43.4379 57.4023 44.4039 57.6538 45.1599 57.2292L45.5754 56.9954C47.1552 56.1069 49.1301 57.2177 49.1301 58.9938V59.4615C49.1301 60.3115 49.837 61 50.7099 61H52.2897C53.1626 61 53.8696 60.3115 53.8696 59.4615V58.9938C53.8696 57.2177 55.8444 56.1069 57.4243 56.9954L57.8398 57.2292C58.5957 57.6538 59.5618 57.4023 59.9978 56.6662L60.7877 55.3338C61.2238 54.5977 60.9655 53.6569 60.2095 53.2323L59.794 52.9985C58.2142 52.11 58.2142 49.89 59.794 49.0015L60.2095 48.7677C60.9655 48.3431 61.2246 47.4023 60.7877 46.6662Z" stroke="#6A7C70" stroke-width="3" stroke-miterlimit="10" stroke-linecap="round" stroke-linejoin="round"/>
<rect x="1.5" y="1.5" width="77" height="63.6667" rx="3.5" stroke="#6A7C70" stroke-width="3"/>
<path d="M0 15H80" stroke="#6A7C70" stroke-width="3"/>
<circle cx="9.5" cy="7.5" r="2.5" fill="#6A7C70"/>
<circle cx="21.5" cy="7.5" r="2.5" fill="#6A7C70"/>
<circle cx="33.5" cy="7.5" r="2.5" fill="#6A7C70"/>
</svg>
