<svg width="150" height="150" viewBox="0 0 150 150" fill="none" xmlns="http://www.w3.org/2000/svg">
<path d="M75 28.125C76.2432 28.125 77.4355 27.6311 78.3146 26.7521C79.1936 25.873 79.6875 24.6807 79.6875 23.4375V14.0625C79.6875 12.8193 79.1936 11.627 78.3146 10.7479C77.4355 9.86886 76.2432 9.375 75 9.375C73.7568 9.375 72.5645 9.86886 71.6854 10.7479C70.8064 11.627 70.3125 12.8193 70.3125 14.0625V23.4375C70.3125 24.6807 70.8064 25.873 71.6854 26.7521C72.5645 27.6311 73.7568 28.125 75 28.125Z" fill="#6A7C70"/>
<path d="M133.594 67.9688H124.219C122.976 67.9688 121.783 68.4626 120.904 69.3417C120.025 70.2208 119.531 71.413 119.531 72.6562C119.531 73.8995 120.025 75.0917 120.904 75.9708C121.783 76.8499 122.976 77.3438 124.219 77.3438H133.594C134.837 77.3438 136.029 76.8499 136.908 75.9708C137.787 75.0917 138.281 73.8995 138.281 72.6562C138.281 71.413 137.787 70.2208 136.908 69.3417C136.029 68.4626 134.837 67.9688 133.594 67.9688Z" fill="#6A7C70"/>
<path d="M25.7812 67.9688H16.4062C15.163 67.9688 13.9708 68.4626 13.0917 69.3417C12.2126 70.2208 11.7188 71.413 11.7188 72.6562C11.7188 73.8995 12.2126 75.0917 13.0917 75.9708C13.9708 76.8499 15.163 77.3438 16.4062 77.3438H25.7812C27.0245 77.3438 28.2167 76.8499 29.0958 75.9708C29.9749 75.0917 30.4688 73.8995 30.4688 72.6562C30.4688 71.413 29.9749 70.2208 29.0958 69.3417C28.2167 68.4626 27.0245 67.9688 25.7812 67.9688Z" fill="#6A7C70"/>
<path d="M109.805 42.539C110.42 42.5407 111.03 42.4202 111.599 42.1844C112.168 41.9486 112.685 41.6024 113.119 41.1656L119.747 34.5375C120.601 33.6534 121.073 32.4693 121.063 31.2403C121.052 30.0112 120.559 28.8355 119.69 27.9664C118.821 27.0973 117.645 26.6044 116.416 26.5937C115.187 26.583 114.003 27.0555 113.119 27.9093L106.491 34.5375C105.835 35.193 105.389 36.0282 105.208 36.9373C105.027 37.8465 105.12 38.7888 105.475 39.6452C105.83 40.5016 106.43 41.2336 107.201 41.7487C107.972 42.2638 108.878 42.5388 109.805 42.539Z" fill="#6A7C70"/>
<path d="M36.8812 41.1657C37.7653 42.0195 38.9494 42.492 40.1784 42.4813C41.4075 42.4707 42.5832 41.9777 43.4523 41.1086C44.3214 40.2395 44.8143 39.0638 44.825 37.8348C44.8357 36.6057 44.3632 35.4216 43.5094 34.5376L36.8812 27.9094C36.4488 27.4617 35.9316 27.1046 35.3597 26.859C34.7878 26.6133 34.1727 26.484 33.5503 26.4786C32.9279 26.4732 32.3107 26.5918 31.7346 26.8275C31.1585 27.0631 30.6351 27.4112 30.195 27.8513C29.7549 28.2915 29.4068 28.8148 29.1711 29.3909C28.9355 29.967 28.8169 30.5842 28.8223 31.2066C28.8277 31.829 28.957 32.4441 29.2026 33.016C29.4483 33.5879 29.8054 34.1052 30.2531 34.5376L36.8812 41.1657Z" fill="#6A7C70"/>
<path d="M102.055 42.1307C98.0983 38.5721 93.4686 35.8423 88.4394 34.1023C83.4102 32.3624 78.0834 31.6475 72.7734 32C67.4634 32.3524 62.2778 33.765 57.5227 36.1544C52.7675 38.5438 48.5393 41.8616 45.0874 45.9119C41.6355 49.9622 39.03 54.663 37.4246 59.7368C35.8192 64.8105 35.2466 70.1545 35.7403 75.4532C36.2341 80.752 37.7844 85.8981 40.2996 90.5879C42.8149 95.2777 46.2441 99.4161 50.3849 102.759C52.2975 104.223 53.8595 106.095 54.9574 108.239C56.0553 110.383 56.6615 112.745 56.7318 115.153V125.728C56.7318 129.457 58.2134 133.034 60.8506 135.671C63.4878 138.308 67.0647 139.79 70.7943 139.79H80.1693C83.8989 139.79 87.4758 138.308 90.113 135.671C92.7502 133.034 94.2318 129.457 94.2318 125.728V115.542C94.1816 113.22 94.6587 110.916 95.6273 108.805C96.596 106.694 98.0309 104.83 99.824 103.354C104.451 99.7811 108.235 95.2338 110.907 90.0347C113.58 84.8356 115.076 79.1121 115.289 73.2701C115.502 67.4282 114.427 61.6109 112.14 56.231C109.852 50.8511 106.41 46.0404 102.055 42.1401V42.1307ZM84.8568 125.728C84.8568 126.971 84.3629 128.163 83.4839 129.042C82.6048 129.921 81.4125 130.415 80.1693 130.415H70.7943C69.5511 130.415 68.3588 129.921 67.4797 129.042C66.6007 128.163 66.1068 126.971 66.1068 125.728V121.04H84.8568V125.728ZM94.0959 95.9291C89.1982 99.8273 85.9916 105.463 85.1427 111.665H80.1693H79.4818H80.9818C82.225 111.665 81.7769 112.544 82.656 111.665C82.656 112.908 84.2888 111.665 82.656 111.665C78.7888 111.665 78.2232 111.665 76.9818 111.665C75.7403 111.665 76.225 111.665 74.9818 111.665H68.3193C67.0761 111.665 64.2403 111.665 66.1068 111.665C65.2277 112.544 66.9107 131 65.8443 111.665C64.9652 110.786 65.8443 112.908 65.8443 111.665C65.2888 113.665 67.0761 111.665 68.3193 111.665H69.4818H70.7943H65.8443C64.792 105.261 61.3827 99.4828 56.2865 95.4651C51.3735 91.4776 47.8239 86.0594 46.1303 79.9628C44.4367 73.8661 44.6832 67.3934 46.8356 61.4433C48.988 55.4931 52.9395 50.3607 58.1415 46.7584C63.3436 43.1562 69.5381 41.2629 75.8651 41.3413C82.1921 41.4197 88.3378 43.466 93.4489 47.1961C98.56 50.9262 102.383 56.1551 104.387 62.1568C106.392 68.1585 106.477 74.6353 104.633 80.6881C102.789 86.7409 99.1062 92.0693 94.0959 95.9338V95.9291Z" fill="#6A7C70"/>
<path d="M56.608 73.64C56.1067 73.8853 55.5573 74.0773 54.96 74.216C55.5573 74.3547 56.1067 74.5467 56.608 74.792L62.416 77.784C62.6613 77.9013 62.8373 78.0507 62.944 78.232C63.0507 78.4133 63.104 78.6107 63.104 78.824V81.64L50.416 75.016V73.416L63.104 66.808V69.624C63.104 69.8373 63.0507 70.0347 62.944 70.216C62.8373 70.3867 62.6613 70.536 62.416 70.664L56.608 73.64ZM71.2665 85.048C71.0852 85.5387 70.7918 85.9067 70.3865 86.152C69.9918 86.3973 69.5865 86.52 69.1705 86.52H67.4905L76.8345 62.616C77.0052 62.168 77.2665 61.8267 77.6185 61.592C77.9705 61.3467 78.3812 61.224 78.8505 61.224H80.5465L71.2665 85.048ZM97.6128 73.416V75.016L84.9248 81.64V78.824C84.9248 78.6107 84.9781 78.4133 85.0848 78.232C85.1914 78.0507 85.3674 77.9013 85.6128 77.784L91.4208 74.792C91.9221 74.5467 92.4714 74.3547 93.0688 74.216C92.4714 74.0773 91.9221 73.8853 91.4208 73.64L85.6128 70.664C85.3674 70.536 85.1914 70.3867 85.0848 70.216C84.9781 70.0347 84.9248 69.8373 84.9248 69.624V66.808L97.6128 73.416Z" fill="#6A7C70"/>
</svg>
