<svg width="24" height="26" viewBox="0 0 24 26" fill="none" xmlns="http://www.w3.org/2000/svg">
<path d="M9.37492 20.7916C4.16659 22.3541 4.16659 18.1875 2.08325 17.6666M16.6666 23.9166V19.8854C16.7057 19.3887 16.6386 18.8894 16.4697 18.4206C16.3009 17.9518 16.0342 17.5244 15.6874 17.1666C18.9583 16.8021 22.3958 15.5625 22.3958 9.87498C22.3955 8.42063 21.8361 7.02206 20.8333 5.96873C21.3081 4.69634 21.2745 3.28992 20.7395 2.04164C20.7395 2.04164 19.5103 1.67706 16.6666 3.58331C14.2791 2.93625 11.7624 2.93625 9.37492 3.58331C6.53117 1.67706 5.302 2.04164 5.302 2.04164C4.76698 3.28992 4.7334 4.69634 5.20825 5.96873C4.19797 7.02987 3.63796 8.44108 3.64575 9.90623C3.64575 15.5521 7.08325 16.7916 10.3541 17.1979C10.0114 17.552 9.74707 17.9744 9.57836 18.4374C9.40966 18.9004 9.34034 19.3938 9.37492 19.8854V23.9166" stroke="#6A7C70" stroke-width="3" stroke-linecap="round" stroke-linejoin="round"/>
</svg>
