<svg width="25" height="25" viewBox="0 0 25 25" fill="none" xmlns="http://www.w3.org/2000/svg">
<mask id="path-1-inside-1_51_3" fill="white">
<path d="M2.93305 0.267639C1.23371 0.267639 0 1.43988 0 3.05382C0 4.66721 1.20923 5.83837 2.8743 5.83837C3.73811 5.83837 4.48226 5.55823 5.02676 5.02841C5.54897 4.5198 5.83672 3.81863 5.83618 3.04131C5.7981 1.40833 4.6041 0.267639 2.93305 0.267639ZM4.26848 4.24891C3.93122 4.57691 3.44873 4.75044 2.8743 4.75044C1.82282 4.75044 1.08793 4.05308 1.08793 3.05382C1.08793 2.03824 1.82935 1.35557 2.93305 1.35557C4.01173 1.35557 4.72432 2.02736 4.7488 3.05436C4.74825 3.52326 4.57799 3.94701 4.26848 4.24891Z"/>
</mask>
<path d="M5.02676 5.02841L7.11889 7.17852L7.11992 7.17752L5.02676 5.02841ZM5.83618 3.04131L8.83618 3.03921L8.83616 3.00529L8.83537 2.97137L5.83618 3.04131ZM4.26848 4.24891L6.36011 6.39951L6.36321 6.39648L4.26848 4.24891ZM4.7488 3.05436L7.7488 3.05784L7.74884 3.02035L7.74795 2.98288L4.7488 3.05436ZM2.93305 -2.73236C-0.276287 -2.73236 -3 -0.360116 -3 3.05382H3C3 3.03621 3.0025 3.05849 2.98312 3.1044C2.96387 3.14998 2.933 3.19489 2.89552 3.2305C2.85865 3.26553 2.82999 3.2779 2.82596 3.27943C2.82218 3.28088 2.85426 3.26764 2.93305 3.26764V-2.73236ZM-3 3.05382C-3 6.41329 -0.356972 8.83837 2.8743 8.83837V2.83837C2.81126 2.83837 2.79351 2.82771 2.8091 2.83377C2.8249 2.83991 2.86033 2.85784 2.90007 2.89634C2.9402 2.93521 2.96966 2.9806 2.98682 3.02203C3.00402 3.06359 3 3.0793 3 3.05382H-3ZM2.8743 8.83837C4.40409 8.83837 5.93667 8.32885 7.11889 7.17852L2.93464 2.87829C2.94932 2.864 2.96581 2.8511 2.98223 2.84074C2.99851 2.83048 3.01004 2.82566 3.01361 2.82432C3.02177 2.82125 2.98166 2.83837 2.8743 2.83837V8.83837ZM7.11992 7.17752C8.25758 6.06949 8.83726 4.57626 8.83618 3.03921L2.83618 3.04341C2.83619 3.05954 2.83368 3.04183 2.84993 3.002C2.86661 2.96115 2.89528 2.91662 2.93361 2.87929L7.11992 7.17752ZM8.83537 2.97137C8.75785 -0.352762 6.17099 -2.73236 2.93305 -2.73236V3.26764C3.00824 3.26764 3.032 3.28007 3.01784 3.27468C3.00284 3.26896 2.96599 3.2508 2.9246 3.21126C2.88288 3.1714 2.85564 3.12797 2.84156 3.09491C2.82775 3.06252 2.83586 3.06248 2.837 3.11124L8.83537 2.97137ZM2.17685 2.09831C2.51853 1.76599 2.8508 1.75044 2.8743 1.75044V7.75044C4.04665 7.75044 5.34391 7.38784 6.36011 6.3995L2.17685 2.09831ZM2.8743 1.75044C3.01919 1.75044 3.34284 1.8073 3.6525 2.10133C3.97362 2.40623 4.08793 2.78731 4.08793 3.05382H-1.91207C-1.91207 4.31958 -1.43032 5.54898 -0.478885 6.45238C0.46109 7.3449 1.67794 7.75044 2.8743 7.75044V1.75044ZM4.08793 3.05382C4.08793 3.31269 3.97327 3.71361 3.62837 4.03109C3.30525 4.32852 2.99779 4.35557 2.93305 4.35557V-1.64443C1.76461 -1.64443 0.534586 -1.27606 -0.435173 -0.383388C-1.42671 0.529325 -1.91207 1.77937 -1.91207 3.05382H4.08793ZM2.93305 4.35557C2.84458 4.35557 2.51518 4.31857 2.1843 4.00833C1.84248 3.68784 1.75412 3.3135 1.74965 3.12585L7.74795 2.98288C7.719 1.76822 7.2621 0.544486 6.2882 -0.368656C5.32523 -1.27154 4.10019 -1.64443 2.93305 -1.64443V4.35557ZM1.7488 3.05088C1.7491 2.78883 1.85275 2.41443 2.17374 2.10133L6.36321 6.39648C7.30324 5.47958 7.7474 4.25768 7.7488 3.05784L1.7488 3.05088Z" fill="#6A7C70" mask="url(#path-1-inside-1_51_3)"/>
<mask id="path-3-inside-2_51_3" fill="white">
<path d="M0.521729 24.7324H5.41087V6.75714H0.521729V24.7324ZM1.60965 7.84507H4.32294V23.6439H1.60965V7.84507Z"/>
</mask>
<path d="M0.521729 24.7324H-4.47827V29.7324H0.521729V24.7324ZM5.41087 24.7324V29.7324H10.4109V24.7324H5.41087ZM5.41087 6.75714H10.4109V1.75714H5.41087V6.75714ZM0.521729 6.75714V1.75714H-4.47827V6.75714H0.521729ZM1.60965 7.84507V2.84507H-3.39035V7.84507H1.60965ZM4.32294 7.84507H9.32294V2.84507H4.32294V7.84507ZM4.32294 23.6439V28.6439H9.32294V23.6439H4.32294ZM1.60965 23.6439H-3.39035V28.6439H1.60965V23.6439ZM0.521729 29.7324H5.41087V19.7324H0.521729V29.7324ZM10.4109 24.7324V6.75714H0.410869V24.7324H10.4109ZM5.41087 1.75714H0.521729V11.7571H5.41087V1.75714ZM-4.47827 6.75714V24.7324H5.52173V6.75714H-4.47827ZM1.60965 12.8451H4.32294V2.84507H1.60965V12.8451ZM-0.677058 7.84507V23.6439H9.32294V7.84507H-0.677058ZM4.32294 18.6439H1.60965V28.6439H4.32294V18.6439ZM6.60965 23.6439V7.84507H-3.39035V23.6439H6.60965Z" fill="#6A7C70" mask="url(#path-3-inside-2_51_3)"/>
<mask id="path-5-inside-3_51_3" fill="white">
<path d="M18.3032 6.75714C16.036 6.75714 14.6478 7.5399 13.8438 8.27589L13.691 6.75714H8.15942V24.7319H13.5768V15.2849C13.5768 14.878 13.7416 14.0332 13.8449 13.8102C14.4993 12.4008 15.3822 12.4008 16.7192 12.4008C18.2592 12.4008 19.5603 13.845 19.5603 15.5541V24.7329H25V14.5772C25 9.20389 21.5284 6.75714 18.3032 6.75714ZM23.9121 23.6445H20.6483V15.5536C20.6483 13.2542 18.8488 11.3123 16.7192 11.3123C15.3528 11.3123 13.8047 11.3123 12.8576 13.3521C12.6623 13.7737 12.4883 14.7839 12.4883 15.2849V23.6445H9.24735V7.84507H12.707L12.9289 10.0449H13.8204L13.9798 9.78756C14.3427 9.20334 15.4899 7.84452 18.3032 7.84452C21.0046 7.84452 23.9121 9.95075 23.9121 14.5755V23.6445Z"/>
</mask>
<path d="M13.8438 8.27589L8.86897 8.77658L9.86719 18.6949L17.22 11.9639L13.8438 8.27589ZM13.691 6.75714L18.6659 6.25645L18.213 1.75714H13.691V6.75714ZM8.15942 6.75714V1.75714H3.15942V6.75714H8.15942ZM8.15942 24.7319H3.15942V29.7319H8.15942V24.7319ZM13.5768 24.7319V29.7319H18.5768V24.7319H13.5768ZM13.8449 13.8102L9.3099 11.7046L9.30837 11.7079L13.8449 13.8102ZM19.5603 24.7329H14.5603V29.7329H19.5603V24.7329ZM25 24.7329V29.7329H30V24.7329H25ZM25 14.5772H20H25ZM20.6483 23.6445H15.6483V28.6445H20.6483V23.6445ZM12.8576 13.3521L8.32255 11.2467L8.32075 11.2505L12.8576 13.3521ZM12.4883 23.6445V28.6445H17.4883V23.6445H12.4883ZM9.24735 23.6445H4.24735V28.6445H9.24735V23.6445ZM9.24735 7.84507V2.84507H4.24735V7.84507H9.24735ZM12.707 7.84507L17.6817 7.34317L17.2279 2.84507H12.707V7.84507ZM12.9289 10.0449L7.95415 10.5468L8.40796 15.0449H12.9289V10.0449ZM13.8204 10.0449V15.0449H16.6048L18.071 12.6779L13.8204 10.0449ZM13.9798 9.78756L9.7323 7.14966L9.72928 7.15454L13.9798 9.78756ZM18.3032 1.75714C14.7555 1.75714 12.1706 3.02896 10.4677 4.58784L17.22 11.9639C17.2087 11.9742 17.2412 11.9383 17.356 11.8931C17.4689 11.8487 17.7579 11.7571 18.3032 11.7571V1.75714ZM18.8187 7.77519L18.6659 6.25645L8.71612 7.25784L8.86897 8.77658L18.8187 7.77519ZM13.691 1.75714H8.15942V11.7571H13.691V1.75714ZM3.15942 6.75714V24.7319H13.1594V6.75714H3.15942ZM8.15942 29.7319H13.5768V19.7319H8.15942V29.7319ZM18.5768 24.7319V15.2849H8.57675V24.7319H18.5768ZM18.5768 15.2849C18.5768 15.3932 18.5717 15.466 18.5699 15.4896C18.5678 15.5179 18.5662 15.5286 18.5673 15.5196C18.5698 15.4991 18.5765 15.4534 18.5872 15.3961C18.5983 15.3363 18.6056 15.308 18.6027 15.3196C18.6012 15.3253 18.5903 15.368 18.5682 15.4373C18.5568 15.4732 18.5383 15.5292 18.5121 15.5997C18.4874 15.6662 18.4445 15.7765 18.3815 15.9125L9.30837 11.7079C8.95554 12.4692 8.79913 13.3353 8.75699 13.561C8.68777 13.9318 8.57675 14.6094 8.57675 15.2849H18.5768ZM18.3799 15.9158C18.3668 15.9441 18.2451 16.1993 17.9401 16.5082C17.6052 16.8474 17.1961 17.1031 16.7822 17.2584C16.5959 17.3283 16.4422 17.3652 16.3412 17.3847C16.2907 17.3944 16.2517 17.4001 16.2268 17.4033C16.2141 17.4049 16.2045 17.406 16.1983 17.4066C16.192 17.4072 16.1887 17.4075 16.1887 17.4075C16.1887 17.4075 16.1915 17.4073 16.1976 17.4069C16.2036 17.4066 16.2124 17.4061 16.2243 17.4056C16.2486 17.4046 16.2822 17.4035 16.3284 17.4027C16.4288 17.4009 16.5427 17.4008 16.7192 17.4008V7.40076C16.3269 7.40076 14.7632 7.33533 13.2699 7.89548C11.2895 8.63841 10.048 10.1148 9.3099 11.7046L18.3799 15.9158ZM16.7192 17.4008C15.8759 17.4008 15.2927 17.0054 15.0026 16.6833C14.7124 16.3612 14.5603 15.9644 14.5603 15.5541H24.5603C24.5603 11.5868 21.4983 7.40076 16.7192 7.40076V17.4008ZM14.5603 15.5541V24.7329H24.5603V15.5541H14.5603ZM19.5603 29.7329H25V19.7329H19.5603V29.7329ZM30 24.7329V14.5772H20V24.7329H30ZM30 14.5772C30 10.7643 28.7385 7.48114 26.4136 5.13371C24.1401 2.83818 21.1573 1.75714 18.3032 1.75714V11.7571C18.6743 11.7571 19.04 11.8995 19.3085 12.1706C19.5257 12.3899 20 13.0167 20 14.5772H30ZM23.9121 18.6445H20.6483V28.6445H23.9121V18.6445ZM25.6483 23.6445V15.5536H15.6483V23.6445H25.6483ZM25.6483 15.5536C25.6483 10.8594 21.9631 6.31229 16.7192 6.31229V16.3123C16.2221 16.3123 15.9229 16.0858 15.8145 15.9688C15.7064 15.8521 15.6483 15.7106 15.6483 15.5536H25.6483ZM16.7192 6.31229C16.1931 6.31229 14.5363 6.2594 12.867 6.88882C10.8655 7.64356 9.30036 9.14053 8.32255 11.2467L17.3927 15.4576C17.4079 15.425 17.3409 15.5789 17.1259 15.7847C16.9003 16.0007 16.636 16.155 16.3953 16.2457C16.1824 16.326 16.059 16.3296 16.1233 16.3238C16.2137 16.3156 16.3419 16.3123 16.7192 16.3123V6.31229ZM8.32075 11.2505C7.94439 12.063 7.76394 12.9416 7.68285 13.3808C7.5881 13.8939 7.48828 14.6053 7.48828 15.2849H17.4883C17.4883 15.3602 17.4853 15.4049 17.4849 15.411C17.4842 15.4204 17.4845 15.4138 17.487 15.3912C17.4924 15.3433 17.5025 15.273 17.5166 15.1967C17.5233 15.1604 17.5297 15.1291 17.5353 15.1041C17.541 15.0785 17.5443 15.0664 17.544 15.0674C17.5437 15.0684 17.5419 15.0751 17.5383 15.087C17.5348 15.0987 17.5286 15.1186 17.5194 15.1457C17.5103 15.1723 17.4966 15.211 17.4776 15.2595C17.459 15.3073 17.4316 15.3736 17.3945 15.4537L8.32075 11.2505ZM7.48828 15.2849V23.6445H17.4883V15.2849H7.48828ZM12.4883 18.6445H9.24735V28.6445H12.4883V18.6445ZM14.2473 23.6445V7.84507H4.24735V23.6445H14.2473ZM9.24735 12.8451H12.707V2.84507H9.24735V12.8451ZM7.73221 8.34697L7.95415 10.5468L17.9036 9.54295L17.6817 7.34317L7.73221 8.34697ZM12.9289 15.0449H13.8204V5.04485H12.9289V15.0449ZM18.071 12.6779L18.2304 12.4206L9.72928 7.15454L9.56989 7.41183L18.071 12.6779ZM18.2274 12.4255C18.0804 12.662 17.9296 12.8032 17.8063 12.8777C17.7478 12.9129 17.7329 12.9098 17.7875 12.8952C17.8441 12.88 18.0056 12.8445 18.3032 12.8445V2.84452C13.4987 2.84452 10.8599 5.33404 9.7323 7.14966L18.2274 12.4255ZM18.3032 12.8445C18.3686 12.8445 18.4476 12.8698 18.5203 12.9453C18.5524 12.9785 18.9121 13.3494 18.9121 14.5755H28.9121C28.9121 11.1768 27.818 8.18224 25.7209 6.00618C23.6646 3.87232 20.9392 2.84452 18.3032 2.84452V12.8445ZM18.9121 14.5755V23.6445H28.9121V14.5755H18.9121Z" fill="#6A7C70" mask="url(#path-5-inside-3_51_3)"/>
</svg>
