<svg width="72" height="83" viewBox="0 0 72 83" fill="none" xmlns="http://www.w3.org/2000/svg">
<path d="M30 0C13.458 0 0 13.458 0 30C0 46.542 13.458 60 30 60C46.542 60 60 46.542 60 30C60 13.458 46.542 0 30 0ZM20.2461 5.80641C18.4378 8.27109 17.0945 11.1881 16.1334 14.051C14.3865 13.4248 12.7693 12.6757 11.3166 11.8139C13.8252 9.23754 16.86 7.17656 20.2461 5.80641ZM8.77664 14.8479C10.6482 16.0155 12.7652 17.0102 15.0638 17.8147C14.3059 21.0179 13.8516 24.4723 13.7299 28.0433H3.98625C4.35094 23.1475 6.07312 18.6238 8.77664 14.8479ZM8.77652 45.152C6.07312 41.3763 4.35082 36.8525 3.98613 31.9566H13.7297C13.8513 35.5277 14.3057 38.982 15.0635 42.1852C12.7651 42.9896 10.6484 43.9843 8.77652 45.152ZM11.3167 48.186C12.7695 47.3242 14.3866 46.5751 16.1336 45.9489C17.0945 48.8115 18.4378 51.7286 20.2463 54.1935C16.86 52.8234 13.8252 50.7625 11.3167 48.186ZM28.0434 55.7257C24.003 54.2428 21.2794 48.9309 19.885 44.8391C22.4445 44.23 25.1931 43.8558 28.0434 43.7375V55.7257ZM28.0434 39.8218C24.8321 39.9462 21.7229 40.3736 18.8195 41.0783C18.1604 38.2282 17.7604 35.1502 17.6442 31.9564H28.0434V39.8218V39.8218ZM28.0434 28.0434H17.6442C17.7602 24.8497 18.1603 21.7718 18.8195 18.9216C21.7229 19.6263 24.8321 20.0537 28.0434 20.178V28.0434V28.0434ZM28.0434 16.2625C25.1932 16.1443 22.4446 15.7699 19.885 15.1609C21.2783 11.0718 24.0019 5.75754 28.0434 4.2743V16.2625ZM51.2235 14.848C53.9269 18.6237 55.6492 23.1475 56.0139 28.0434H46.2703C46.1487 24.4723 45.6943 21.018 44.9365 17.8148C47.2349 17.0104 49.3516 16.0157 51.2235 14.848ZM48.6833 11.814C47.2305 12.6758 45.6134 13.4249 43.8664 14.0511C42.9055 11.1885 41.5622 8.27145 39.7537 5.80652C43.14 7.17656 46.1748 9.23754 48.6833 11.814ZM31.9566 4.2743C35.997 5.75719 38.7206 11.0691 40.115 15.1609C37.5555 15.77 34.8069 16.1442 31.9566 16.2625V4.2743ZM31.9566 20.1782C35.1679 20.0538 38.2771 19.6264 41.1805 18.9217C41.8396 21.7718 42.2396 24.8498 42.3558 28.0436H31.9566V20.1782ZM31.9566 31.9434H42.3558C42.2398 35.1372 41.8397 38.2282 41.1805 41.0783C38.2771 40.3736 35.1679 39.9462 31.9566 39.8218V31.9434ZM31.9566 55.7257V43.7375C34.8068 43.8557 37.5554 44.2301 40.115 44.8391C38.7217 48.9281 35.998 54.2423 31.9566 55.7257ZM39.7539 54.1936C41.5622 51.7289 42.9055 48.8119 43.8666 45.949C45.6135 46.5752 47.2305 47.3243 48.6834 48.1861C46.1748 50.7625 43.14 52.8234 39.7539 54.1936ZM51.2234 45.1521C49.3518 43.9845 47.2348 42.9898 44.9362 42.1853C45.6941 38.9821 46.1484 35.5147 46.2701 31.9437H56.0136C55.6491 36.8395 53.9269 41.3762 51.2234 45.1521Z" fill="#6A7C70"/>
<path d="M57.4 68.24V49.76H62.56V68.24H57.4ZM50.48 61.44V56.56H69.52V61.44H50.48Z" fill="#6A7C70"/>
</svg>
