<svg width="30" height="28" viewBox="0 0 30 28" fill="none" xmlns="http://www.w3.org/2000/svg">
<path d="M28.23 0.00200727C27.8977 0.0165861 27.5742 0.109072 27.2825 0.225882C26.9938 0.34191 25.3316 1.05137 22.877 2.10083C20.4224 3.15029 17.2316 4.51692 14.0686 5.87205C7.74265 8.58233 1.5263 11.249 1.5263 11.249L1.57161 11.2317C1.57161 11.2317 1.19642 11.3571 0.816034 11.6222C0.625839 11.7547 0.421221 11.9258 0.253682 12.1752C0.0861429 12.4246 -0.0363391 12.7781 0.00981847 13.152C0.171945 14.4652 1.53297 14.8377 1.53297 14.8377L1.5383 14.8404L7.61223 16.9192C7.76709 17.4358 9.45447 23.0677 9.82565 24.2604C10.0306 24.9198 10.2225 25.3002 10.4227 25.5597C10.5228 25.6895 10.6278 25.79 10.7438 25.8635C10.7899 25.8927 10.8384 25.9146 10.8864 25.9341C10.8874 25.9346 10.888 25.9337 10.8891 25.9341C10.895 25.9367 10.9005 25.937 10.9064 25.9395L10.8904 25.9355C10.9015 25.94 10.9125 25.9476 10.9237 25.9515C10.9454 25.9591 10.9586 25.9588 10.9863 25.9648C11.682 26.2077 12.2576 25.7569 12.2576 25.7569L12.2816 25.7383L16.0129 22.2775L22.0681 26.9989L22.1441 27.0335C23.204 27.5041 24.1625 27.2416 24.6933 26.8097C25.2242 26.3777 25.4329 25.8209 25.4329 25.8209L25.4556 25.7622L29.9051 2.57123C30.0189 2.0524 30.0351 1.60393 29.9277 1.19867C29.8204 0.793415 29.5595 0.441131 29.2321 0.245871C28.9048 0.0506103 28.5623 -0.0125715 28.23 0.00200727ZM28.266 1.38923C28.4009 1.38298 28.501 1.39841 28.5325 1.41721C28.564 1.43602 28.5782 1.43355 28.6085 1.54781C28.6387 1.66207 28.6551 1.90274 28.5725 2.2794L28.5698 2.28739L24.1456 25.3438C24.1352 25.367 24.043 25.5803 23.8325 25.7516C23.6177 25.9263 23.3789 26.0627 22.7451 25.7969L16.1235 20.6331L15.9369 20.4865L15.9329 20.4905L13.9527 19.0047L25.0811 5.91203C25.1666 5.81169 25.2212 5.68872 25.2383 5.558C25.2554 5.42728 25.2343 5.2944 25.1775 5.17543C25.1207 5.05646 25.0307 4.9565 24.9182 4.88762C24.8058 4.81875 24.6759 4.78391 24.5441 4.78733C24.4153 4.79067 24.2901 4.8304 24.1829 4.90193L8.07997 15.6372L1.99671 13.5544C1.99671 13.5544 1.39264 13.2183 1.36373 12.9841C1.36212 12.9711 1.35499 12.9828 1.38638 12.9361C1.41777 12.8894 1.49667 12.8105 1.5956 12.7415C1.79344 12.6037 2.01936 12.5203 2.01936 12.5203L2.04201 12.5123L2.06467 12.503C2.06467 12.503 8.28134 9.83615 14.607 7.12602C17.7698 5.77095 20.96 4.40533 23.414 3.35613C25.8674 2.3072 27.6402 1.55218 27.7903 1.49184C27.9611 1.42341 28.131 1.39548 28.266 1.38923ZM20.8861 8.73978L12.4469 18.6689L12.4429 18.6729C12.4297 18.6887 12.4172 18.7052 12.4055 18.7222C12.3922 18.7407 12.3797 18.7598 12.3682 18.7795C12.3208 18.86 12.2904 18.9493 12.2789 19.042C12.2789 19.0438 12.2789 19.0456 12.2789 19.0473L11.1796 23.9912C11.1613 23.9378 11.1485 23.9183 11.1289 23.8553V23.854C10.7797 22.732 9.18773 17.4206 8.96747 16.686L20.8861 8.73978ZM13.3997 20.296L14.9161 21.434L12.6881 23.4995L13.3997 20.296Z" fill="white"/>
</svg>
